<svg width="20" height="19" viewBox="0 0 20 19" fill="none" xmlns="http://www.w3.org/2000/svg">
<path d="M10.0005 15.7272L15.1305 18.8819C15.2636 18.9627 15.4177 19.0023 15.5733 18.9955C15.7288 18.9888 15.8789 18.9361 16.0045 18.8441C16.1301 18.7521 16.2257 18.6249 16.279 18.4786C16.3324 18.3323 16.3412 18.1735 16.3043 18.0222L14.9093 12.1357L19.4749 8.19818C19.5913 8.09597 19.6752 7.9619 19.7163 7.81254C19.7574 7.66317 19.7538 7.50504 19.7061 7.35768C19.6583 7.21031 19.5685 7.08015 19.4476 6.98328C19.3267 6.88641 19.1801 6.82706 19.0258 6.81255L13.0343 6.32505L10.7262 0.737554C10.6673 0.593402 10.5669 0.470043 10.4376 0.383209C10.3084 0.296374 10.1562 0.25 10.0005 0.25C9.84483 0.25 9.69266 0.296374 9.56343 0.383209C9.43419 0.470043 9.33375 0.593402 9.27491 0.737554L6.96678 6.32505L0.975218 6.81255C0.819935 6.82619 0.672113 6.88528 0.55022 6.98244C0.428327 7.0796 0.337768 7.21053 0.289857 7.35887C0.241946 7.5072 0.238808 7.66636 0.280834 7.81647C0.32286 7.96658 0.408187 8.10097 0.526155 8.20287L5.09178 12.1404L3.69678 18.0222C3.6599 18.1735 3.66869 18.3323 3.72205 18.4786C3.77541 18.6249 3.87093 18.7521 3.99655 18.8441C4.12217 18.9361 4.27224 18.9888 4.4278 18.9955C4.58336 19.0023 4.73743 18.9627 4.87053 18.8819L10.0005 15.7272Z" fill="#F1AD00"/>
</svg>
